<svg width="38" height="38" viewBox="0 0 38 38" fill="none" xmlns="http://www.w3.org/2000/svg">
<path d="M19 0C8.50683 0 0 8.50683 0 19C0 29.4932 8.50683 38 19 38C29.4932 38 38 29.4931 38 19C38 8.50688 29.4932 0 19 0Z" fill="#1A1A1A"/>
<path d="M23.2996 21.1994L21.5993 19.4991C20.9813 18.8806 19.9783 18.8806 19.3604 19.4991C18.7419 20.1171 18.7419 21.12 19.3604 21.738L21.0581 23.4357L23.2996 21.1994Z" fill="#FFF100"/>
<path d="M29.809 27.709L28.1395 26.0395L25.8979 28.2758L27.5701 29.948C27.879 30.2572 28.2844 30.4118 28.6895 30.4118C29.0946 30.4118 29.5 30.2572 29.809 29.948C30.4275 29.33 30.4275 28.327 29.809 27.709Z" fill="#FFF100"/>
<path d="M19 28.4626C13.7823 28.4626 9.53735 24.2177 9.53735 19.0002C9.53735 13.7822 13.7823 9.53729 19 9.53729C24.2177 9.53729 28.4629 13.7822 28.4629 19.0002C28.4629 24.2177 24.2177 28.4626 19 28.4626ZM19 12.4401C15.3829 12.4401 12.4401 15.383 12.4401 19.0002C12.4401 22.6173 15.3829 25.5598 19 25.5598C22.6171 25.5598 25.5601 22.6173 25.5601 19.0002C25.5601 15.3831 22.6171 12.4401 19 12.4401Z" fill="#FFF100"/>
</svg>
